<mxfile host="app.diagrams.net" modified="2024-10-03T12:21:07.955Z" agent="Mozilla/5.0 (Macintosh; Intel Mac OS X 10_15_7) AppleWebKit/537.36 (KHTML, like Gecko) Chrome/129.0.0.0 Safari/537.36" version="23.0.2" etag="efBBehRDkpJpuTQtydA-" type="github">
  <diagram name="Страница — 1" id="YAOzS1HSeorgYQwFBjQh">
    <mxGraphModel>
      <root>
        <mxCell id="0" />
        <mxCell id="1" parent="0" />
      </root>
    </mxGraphModel>
  </diagram>
</mxfile>
